<svg width="116" height="152" viewBox="0 0 116 152" fill="none" xmlns="http://www.w3.org/2000/svg">
<g id="Group">
<path id="Vector" d="M97.672 104.768C88.624 100.824 77.256 98.504 64.96 97.808V111.496L69.368 107.088C70.76 105.696 72.384 105 74.24 105C76.096 105 77.952 105.696 79.112 107.088C80.504 108.48 81.2 110.104 81.2 111.96C81.2 113.816 80.504 115.672 79.112 116.832L62.872 133.072C62.64 133.304 62.176 133.768 61.712 134L61.48 134.232L61.016 134.464H60.784H60.552H60.32C60.088 134.464 60.088 134.464 59.856 134.696L59.392 134.928H59.16C58.696 134.928 58.232 135.16 57.768 135.16C57.304 135.16 56.84 135.16 56.376 134.928H56.144L55.68 134.696C55.68 134.696 55.448 134.696 55.216 134.464H54.984H54.752H54.52L54.056 134.232L53.824 134C53.36 133.768 53.128 133.536 52.664 133.072L36.424 116.832C35.032 115.44 34.336 113.816 34.336 111.96C34.336 110.104 35.032 108.248 36.424 107.088C37.816 105.696 39.44 105 41.296 105C43.152 105 45.008 105.696 46.168 107.088L50.576 111.496V97.808C38.28 98.504 26.912 100.824 17.864 104.768C6.264 109.872 0 116.832 0 124.488C0 132.144 6.264 139.336 17.864 144.208C28.536 148.848 42.456 151.4 57.536 151.4C72.616 151.4 86.536 148.848 97.208 144.208C108.808 139.104 115.072 132.144 115.072 124.488C115.536 116.832 109.04 109.872 97.672 104.768Z" fill="#FFFCFC"/>
<path id="Vector_2" d="M58 90.384C82.824 90.384 103.008 70.2 103.008 45.376C103.008 20.552 82.824 0.367996 58 0.367996C33.176 0.367996 12.992 20.552 12.992 45.376C12.992 70.2 33.176 90.384 58 90.384ZM58 20.088C64.728 20.088 70.064 25.424 70.064 32.152C70.064 38.88 64.728 44.216 58 44.216C51.272 44.216 45.936 38.88 45.936 32.152C45.936 25.424 51.272 20.088 58 20.088ZM43.152 59.528C43.152 53.728 47.792 48.856 53.824 48.856H62.408C68.208 48.856 73.08 53.496 73.08 59.528V67.416C73.08 69.272 71.456 70.896 69.6 70.896C67.744 70.896 66.12 69.272 66.12 67.416V59.528C66.12 57.44 64.496 55.816 62.408 55.816H53.824C51.736 55.816 50.112 57.44 50.112 59.528V67.416C50.112 69.272 48.488 70.896 46.632 70.896C44.776 70.896 43.152 69.272 43.152 67.416V59.528Z" fill="#FFFCFC"/>
<path id="Vector_3" d="M61.248 93.864H54.52V120.312L44.08 109.872C42.688 108.48 40.6 108.48 39.208 109.872C37.816 111.264 37.816 113.352 39.208 114.744L55.448 130.984C55.68 131.216 55.912 131.448 56.144 131.448C56.144 131.448 56.376 131.448 56.376 131.68H56.608C56.84 131.68 57.304 131.912 57.536 131.912C57.768 131.912 58.232 131.912 58.464 131.68H58.696C58.696 131.68 58.928 131.68 58.928 131.448C59.16 131.216 59.392 131.216 59.624 130.984L75.864 114.744C77.256 113.352 77.256 111.264 75.864 109.872C74.472 108.48 72.384 108.48 70.992 109.872L60.552 120.312L61.248 93.864Z" fill="#FFFCFC"/>
</g>
</svg>
